<svg width="48" height="48" viewBox="0 0 48 48" fill="none" xmlns="http://www.w3.org/2000/svg">
<path d="M44.0278 33.0908C43.4806 33.47 42.919 33.7677 42.3478 33.9501C40.4517 34.5502 38.114 33.9981 36.0163 33.134C34.5186 32.5147 32.949 31.713 31.3025 30.7001C32.1617 28.6023 32.9682 26.2068 33.6546 23.5569C34.7202 19.4428 35.2291 15.8184 35.3347 12.6356C35.4019 10.6674 35.3059 8.86717 35.0899 7.23018C34.7922 4.97872 34.101 2.68886 32.6321 1.3399C32.1665 0.922253 31.6001 0.57181 30.9665 0.283776C33.9666 -0.0426615 36.6307 -0.0666619 38.9828 0.106158C41.4549 0.317383 43.9702 0.927053 45.4391 2.36722C46.908 3.80739 47.556 6.31808 47.8152 8.78077C48.0552 11.133 48.0744 13.7973 47.796 16.8121C47.5128 19.7836 46.9367 23.0864 45.9911 26.7493H45.9959C45.4007 29.0151 44.7191 31.1802 44.0278 33.0908ZM7.80064 31.2282C7.74304 30.5657 7.76703 29.9272 7.89663 29.3416C8.32385 27.3973 9.97035 25.6547 11.7704 24.2626C13.0569 23.2784 14.5305 22.3183 16.2346 21.3966C17.6219 23.192 19.2923 25.0835 21.246 27.0037C24.275 29.9848 27.1599 32.2363 29.8624 33.9165C31.5329 34.9582 33.1362 35.7743 34.6626 36.408C36.7603 37.2721 39.0884 37.8241 40.9941 37.2241C41.5893 37.0272 42.175 36.7152 42.7414 36.312C41.5221 39.0723 40.2116 41.3957 38.8868 43.3448C37.4659 45.3802 35.6851 47.2572 33.7026 47.8045C31.7201 48.3566 29.224 47.6653 26.9631 46.6572C24.8078 45.6923 22.4893 44.3721 20.0172 42.6247C17.5883 40.8965 15.0106 38.7458 12.3128 36.0911C10.6472 34.4541 9.1063 32.7836 7.80064 31.2282ZM27.4767 0.778237C28.0815 1.06147 28.6192 1.40231 29.0608 1.80556C30.5297 3.14971 31.2161 5.44918 31.5233 7.70064C31.7345 9.30403 31.8257 11.0658 31.7729 13.0005C29.5216 13.3029 27.0495 13.8021 24.4094 14.5366C20.3148 15.6696 16.9211 17.0425 14.1129 18.5451C12.3753 19.4716 10.8632 20.4509 9.55753 21.459C7.75745 22.8416 6.11578 24.5842 5.68376 26.5332C5.55415 27.1477 5.53015 27.8102 5.60215 28.5015C3.82127 26.0676 2.46281 23.7681 1.44037 21.6463C0.384321 19.3996 -0.345302 16.9177 0.168321 14.9255C0.681943 12.9332 2.53001 11.1138 4.5317 9.66407C6.44698 8.27671 8.74628 6.92775 11.4968 5.6652C14.2089 4.42666 17.3627 3.26972 21.006 2.26161C23.2621 1.62793 25.4798 1.13348 27.4767 0.778237Z" fill="#002F6C"/>
</svg>
